<?xml version="1.0" standalone="no"?><!DOCTYPE svg PUBLIC "-//W3C//DTD SVG 1.1//EN" "http://www.w3.org/Graphics/SVG/1.1/DTD/svg11.dtd"><svg t="1659694380248" class="icon" viewBox="0 0 1024 1024" version="1.1" xmlns="http://www.w3.org/2000/svg" p-id="3519" xmlns:xlink="http://www.w3.org/1999/xlink" width="20" height="20"><defs><style type="text/css">@font-face { font-family: feedback-iconfont; src: url("//at.alicdn.com/t/font_1031158_u69w8yhxdu.woff2?t=1630033759944") format("woff2"), url("//at.alicdn.com/t/font_1031158_u69w8yhxdu.woff?t=1630033759944") format("woff"), url("//at.alicdn.com/t/font_1031158_u69w8yhxdu.ttf?t=1630033759944") format("truetype"); }
</style></defs><path d="M127.32 298.62h597.25c0 23.46 19.19 42.66 42.66 42.66 23.47 0 42.66-19.2 42.66-42.66h85.32c23.47 0 42.66-19.2 42.66-42.66 0-23.46-19.2-42.66-42.66-42.66h-85.32c0-23.46-19.2-42.66-42.66-42.66-23.47 0-42.66 19.2-42.66 42.66H127.32c-23.47 0-42.66 19.2-42.66 42.66-0.01 23.46 19.19 42.66 42.66 42.66zM895.2 469.26H553.92c0-23.46-19.2-42.66-42.66-42.66-23.47 0-42.66 19.2-42.66 42.66H127.32c-23.47 0-42.66 19.2-42.66 42.66 0 23.46 19.2 42.66 42.66 42.66H468.6c0 23.46 19.2 42.66 42.66 42.66 23.47 0 42.66-19.2 42.66-42.66H895.2c23.47 0 42.66-19.2 42.66-42.66 0-23.46-19.19-42.66-42.66-42.66zM895.2 725.23H681.9c0-23.46-19.2-42.66-42.66-42.66s-42.66 19.2-42.66 42.66H127.32c-23.47 0-42.66 19.2-42.66 42.66s19.2 42.66 42.66 42.66h469.27c0 23.46 19.2 42.66 42.66 42.66s42.66-19.2 42.66-42.66h213.3c23.47 0 42.66-19.2 42.66-42.66s-19.2-42.66-42.67-42.66z" fill="#8a8a8a" p-id="3520"></path></svg>