<?xml version="1.0" standalone="no"?><!DOCTYPE svg PUBLIC "-//W3C//DTD SVG 1.1//EN" "http://www.w3.org/Graphics/SVG/1.1/DTD/svg11.dtd"><svg t="1660640827059" class="icon" viewBox="0 0 1024 1024" version="1.1" xmlns="http://www.w3.org/2000/svg" p-id="11536" xmlns:xlink="http://www.w3.org/1999/xlink" width="20" height="20"><defs><style type="text/css">@font-face { font-family: feedback-iconfont; src: url("//at.alicdn.com/t/font_1031158_u69w8yhxdu.woff2?t=1630033759944") format("woff2"), url("//at.alicdn.com/t/font_1031158_u69w8yhxdu.woff?t=1630033759944") format("woff"), url("//at.alicdn.com/t/font_1031158_u69w8yhxdu.ttf?t=1630033759944") format("truetype"); }
</style></defs><path d="M127.999488 77.9776c75.264-26.112 155.5456-39.168 240.7936-39.168 62.976 0 97.5872 7.0656 155.9552 26.624l2.7136 0.9216c51.712 17.408 79.616 23.0912 132.352 23.0912 87.296 0 170.5472-20.3264 250.112-61.0304A25.6 25.6 0 0 1 947.199488 51.2v536.2688c0.1024 35.6864-126.3616 93.2352-235.4176 93.2352-40.2432 0-80.0256-2.048-140.8512-6.5024l-24.9344-1.8944c-111.872-8.448-159.488-10.4448-215.552-6.4-71.3728 5.12-138.752 23.04-202.4448 53.76V1024H76.799488V0h51.2v77.9776z m531.8144 62.6688c-59.136 0-92.1088-6.7584-148.6336-25.7024l-2.6624-0.9216c-53.6064-17.9712-83.0976-24.0128-139.7248-24.0128-86.016 0-166.2464 14.1824-240.7936 42.496v530.8416a603.9552 603.9552 0 0 1 198.7584-48.4864c59.4944-4.3008 108.5952-2.2528 223.1296 6.4l24.7808 1.8944c59.6992 4.4032 98.4576 6.3488 137.1136 6.3488 51.9168 0 99.84-11.52 141.9776-30.72a286.8224 286.8224 0 0 0 45.312-25.6512c-1.024 0.9216-2.2528 1.8432-3.072 2.56V91.648a588.6464 588.6464 0 0 1-236.1856 49.0496z" fill="#333333" p-id="11537"></path></svg>