<?xml version="1.0" standalone="no"?><!DOCTYPE svg PUBLIC "-//W3C//DTD SVG 1.1//EN" "http://www.w3.org/Graphics/SVG/1.1/DTD/svg11.dtd"><svg t="1662794481325" class="icon" viewBox="0 0 1024 1024" version="1.1" xmlns="http://www.w3.org/2000/svg" p-id="2420" xmlns:xlink="http://www.w3.org/1999/xlink" width="200" height="200"><path d="M512 256a256 256 0 0 1 256 256v341.333333H256V512a256 256 0 0 1 256-256m0-42.666667a298.666667 298.666667 0 0 0-298.666667 298.666667v384h597.333334V512a298.666667 298.666667 0 0 0-298.666667-298.666667z" p-id="2421" fill="#ffb000"></path><path d="M170.666667 853.333333h682.666666v42.666667H170.666667zM490.666667 42.666667h42.666666v128h-42.666666zM280.256 110.656l36.949333-21.333333 64 110.848-36.949333 21.333333zM642.965333 199.936l64-110.848 36.949334 21.333333-64 110.848zM440.746667 762.666667l-28.16-32 143.786666-125.866667-173.653333-65.066667 201.813333-151.466666 25.6 34.133333-139.52 104.533333 167.68 62.933334-197.546666 172.8z" p-id="2422" fill="#ffb000"></path></svg>